<?xml version="1.0" standalone="no"?>
<!DOCTYPE svg PUBLIC "-//W3C//DTD SVG 20010904//EN"
 "http://www.w3.org/TR/2001/REC-SVG-20010904/DTD/svg10.dtd">
<svg version="1.0" xmlns="http://www.w3.org/2000/svg"
 width="300.000000pt" height="300.000000pt" viewBox="0 0 300.000000 300.000000"
 preserveAspectRatio="xMidYMid meet">
<metadata>
Created by potrace 1.10, written by Peter Selinger 2001-2011
</metadata>
<g transform="translate(0.000000,300.000000) scale(0.100000,-0.100000)"
fill="#000000" stroke="none">
<path d="M1833 2961 c-15 -23 -44 -64 -65 -92 -35 -49 -69 -124 -83 -184 -7
-27 -10 -20 -31 58 -27 101 -30 107 -49 107 -16 0 -21 -28 -30 -150 -8 -127 7
-212 65 -351 l51 -121 -12 -146 c-6 -81 -14 -163 -18 -182 l-8 -35 -7 35 c-4
19 -18 69 -31 110 -14 41 -31 120 -40 175 -17 110 -70 312 -87 333 -25 30 -29
-9 -14 -149 8 -79 18 -173 21 -209 8 -78 27 -124 101 -240 l56 -89 -7 -68 c-6
-64 -36 -259 -51 -330 -10 -48 -21 -32 -29 43 -10 92 -41 198 -79 269 -48 89
-63 133 -85 244 -21 105 -34 141 -51 141 -16 0 -11 -121 7 -185 11 -39 16 -88
14 -140 -2 -44 -3 -80 -4 -81 -1 -1 -14 -4 -28 -8 -24 -5 -29 -1 -54 50 -47
96 -81 50 -69 -95 4 -52 3 -71 -5 -67 -7 5 -11 50 -11 124 0 133 -6 164 -28
160 -23 -4 -48 -52 -74 -143 -22 -78 -24 -81 -48 -74 -38 11 -88 10 -95 -1 -9
-14 19 -61 59 -99 34 -33 36 -39 36 -97 0 -33 3 -83 8 -110 6 -45 7 -41 12 48
l5 96 28 -22 28 -23 -12 -61 c-14 -67 -25 -79 -32 -34 -3 21 -5 19 -6 -13 -6
-95 -12 -92 -80 41 -63 124 -64 126 -71 232 -6 86 -16 131 -50 234 -45 134
-107 270 -126 276 -18 5 -24 -34 -24 -153 l0 -109 -37 35 c-60 57 -94 79 -120
79 -34 0 -38 -22 -18 -98 23 -87 47 -134 97 -187 39 -43 225 -171 234 -162 2
2 -34 30 -81 61 -149 100 -186 142 -225 255 -20 61 -27 121 -12 121 30 0 229
-175 273 -240 26 -38 53 -102 74 -170 6 -20 0 -17 -33 20 -23 25 -41 39 -42
32 0 -7 7 -15 15 -18 8 -4 15 -12 15 -18 0 -7 6 -18 13 -25 6 -6 12 -15 12
-19 0 -4 12 -23 26 -42 14 -19 39 -57 54 -85 29 -51 25 -51 -30 -2 -44 40
-110 77 -164 92 -101 28 -151 45 -204 70 -29 13 -65 27 -80 30 -74 19 22 -106
142 -183 70 -46 116 -59 253 -71 53 -5 105 -14 115 -20 16 -8 143 -246 143
-267 0 -3 -29 15 -64 40 -75 54 -115 72 -216 98 -41 10 -119 39 -172 65 -54
25 -101 44 -104 40 -11 -10 35 -74 87 -121 45 -41 137 -86 175 -86 8 0 44 -13
79 -30 50 -23 78 -30 127 -30 94 0 101 -4 136 -76 37 -74 37 -74 17 -74 -8 0
-15 6 -15 13 0 21 -51 64 -102 87 -53 23 -143 29 -177 10 -19 -10 -27 -8 -56
14 -36 28 -65 34 -65 14 0 -7 11 -31 24 -52 18 -30 22 -48 18 -82 -4 -40 -2
-47 34 -83 23 -22 58 -44 82 -51 31 -10 65 -36 129 -100 77 -75 102 -93 203
-142 63 -31 125 -67 137 -80 15 -16 25 -46 33 -103 19 -131 87 -335 111 -335
13 0 12 0 -22 74 -34 74 -35 103 -2 172 15 32 26 41 63 52 89 26 122 46 185
114 84 88 125 152 171 261 30 72 46 96 90 135 54 49 59 62 20 62 -37 0 -81
-35 -115 -92 -27 -44 -44 -60 -90 -82 -101 -50 -200 -116 -235 -160 -49 -59
-86 -142 -86 -196 -1 -51 -36 -163 -44 -140 -14 40 -26 110 -26 162 0 54 3 60
47 110 112 126 198 274 267 458 47 126 54 160 31 160 -9 0 -29 -13 -43 -28
-15 -15 -74 -77 -132 -138 -58 -60 -112 -125 -120 -144 l-15 -35 -11 75 c-6
41 -14 86 -18 100 -12 42 23 76 92 90 79 16 134 42 212 100 108 80 197 185
241 285 19 44 19 65 -2 65 -6 0 -40 -20 -77 -44 -37 -24 -96 -58 -132 -76
-132 -66 -253 -169 -294 -248 -20 -39 -28 -41 -16 -4 61 192 61 192 119 250
80 80 79 80 162 93 125 19 266 99 367 211 24 26 72 70 108 98 67 54 80 80 41
80 -58 0 -194 -23 -241 -40 -28 -11 -52 -20 -54 -20 -1 0 0 11 4 25 3 14 -1
37 -10 56 -16 31 -15 33 17 73 73 90 137 214 137 262 0 43 -37 28 -134 -54
-50 -43 -121 -99 -157 -124 -36 -26 -81 -64 -99 -84 -41 -47 -84 -139 -75
-162 3 -9 3 -13 -2 -9 -4 4 -15 -7 -26 -25 -15 -28 -17 -29 -13 -8 3 14 10 68
17 120 19 159 56 233 147 291 104 65 170 163 248 369 40 104 52 160 36 160
-22 0 -212 -218 -274 -314 -24 -37 -53 -107 -78 -185 -61 -193 -72 -192 -50 3
16 133 38 212 85 301 58 108 73 158 91 293 17 128 15 243 -3 249 -7 3 -25 -14
-40 -36z m47 -19 c0 -61 -30 -283 -45 -333 -7 -26 -26 -72 -41 -103 -23 -47
-29 -54 -37 -40 -6 11 -6 34 2 66 12 55 14 85 5 75 -4 -3 -12 -35 -19 -69 -9
-44 -13 -54 -14 -31 0 17 -6 35 -12 39 -6 3 -9 24 -7 45 3 38 -5 51 -16 27 -3
-7 -4 7 -1 31 6 49 38 146 57 171 7 9 35 49 62 89 27 39 53 71 57 71 5 0 9
-17 9 -38z m-236 -212 c14 -47 36 -123 50 -169 19 -62 26 -104 25 -165 -1
-118 -11 -135 -35 -57 -10 35 -20 58 -22 52 -2 -6 4 -34 13 -62 33 -99 7 -57
-36 58 -39 107 -44 128 -47 226 -5 117 5 224 18 211 5 -5 20 -47 34 -94z m456
-106 c0 -3 -15 -42 -34 -87 -18 -45 -41 -105 -50 -133 -31 -94 -132 -230 -192
-259 -44 -21 -49 -20 -51 11 -5 67 57 172 205 346 96 114 122 140 122 122z
m-581 -244 c17 -63 37 -159 46 -213 8 -54 26 -130 40 -169 14 -39 23 -74 20
-76 -3 -3 -5 0 -5 7 0 7 -4 10 -9 6 -11 -6 -73 101 -90 155 -14 47 -49 420
-38 410 3 -3 19 -57 36 -120z m626 -200 c9 -15 -39 -122 -83 -186 -71 -101
-76 -107 -101 -99 -17 5 -20 10 -12 18 6 6 11 16 11 21 0 6 -7 0 -16 -12 -8
-12 -24 -22 -35 -22 -16 0 -14 5 13 30 18 16 28 30 22 30 -5 0 -25 -15 -43
-34 -18 -19 -38 -33 -45 -30 -6 2 -36 -19 -66 -48 -30 -28 -59 -51 -64 -49 -5
1 -5 -6 -2 -16 6 -14 4 -15 -5 -6 -8 8 -5 24 17 63 30 55 84 108 168 164 28
19 89 68 136 110 89 78 95 82 105 66z m-1351 -133 c41 -89 112 -308 119 -362
2 -22 2 -31 0 -21 -4 16 -7 17 -14 5 -7 -12 -9 -12 -9 1 0 18 -59 140 -60 125
-1 -20 -20 21 -20 45 0 14 -5 32 -11 40 -8 11 -9 5 -4 -25 3 -25 2 -35 -3 -27
-5 8 -13 13 -18 11 -20 -4 -34 50 -34 132 0 82 7 149 17 149 2 0 19 -33 37
-73z m583 -57 c2 -59 1 -69 -7 -45 -5 17 -12 59 -16 95 -4 54 -3 62 7 45 7
-10 14 -53 16 -95z m101 -265 c26 -51 48 -114 61 -174 25 -119 15 -148 -24
-71 -15 29 -48 84 -73 122 -52 79 -60 114 -53 253 l4 90 22 -70 c12 -38 40
-106 63 -150z m500 129 c43 -48 19 -139 -52 -202 -53 -46 -99 -56 -153 -32
-24 10 -43 22 -43 25 0 3 5 3 10 0 11 -7 24 18 18 36 -3 8 -9 7 -20 -4 -15
-15 -16 -14 -22 8 -11 43 51 143 107 172 76 39 118 38 155 -3z m-794 -15 c11
-55 7 -219 -5 -219 -6 0 -13 9 -16 21 -4 13 -8 16 -13 9 -5 -8 -14 -8 -34 -1
-23 9 -26 15 -20 38 19 78 60 183 73 183 5 0 11 -14 15 -31z m1121 -49 c-12
-13 -25 -18 -41 -14 -16 4 -40 -3 -71 -22 -70 -40 -175 -116 -169 -121 3 -3
27 10 53 29 71 51 172 110 182 106 5 -2 -44 -52 -108 -113 -89 -84 -136 -120
-198 -152 -98 -50 -184 -71 -211 -51 -27 19 -27 19 -3 66 22 42 36 57 24 25
-3 -10 4 -6 16 9 12 15 25 27 29 26 8 -1 56 17 90 34 26 14 132 124 125 131
-13 13 185 60 276 66 23 1 24 0 6 -19z m-1028 -37 c22 -49 16 -76 -10 -54 -13
10 -15 -3 -13 -91 1 -87 5 -109 24 -143 50 -88 70 -116 78 -115 5 1 13 -15 18
-34 5 -20 14 -36 19 -36 5 0 7 6 4 13 -15 40 -17 56 -7 62 5 3 15 -4 20 -17
11 -23 11 -23 6 2 -5 23 -4 23 8 7 15 -19 37 -117 41 -184 2 -23 6 -52 10 -64
6 -18 5 -20 -7 -9 -14 13 -16 22 -19 80 -1 16 -6 27 -10 24 -4 -2 -13 13 -20
33 -7 21 -14 33 -16 26 -2 -6 7 -38 21 -72 15 -33 26 -63 26 -67 0 -6 -87 111
-147 199 -52 78 -65 132 -70 320 -5 141 -3 167 9 167 8 0 24 -21 35 -47z m104
-75 c6 -13 40 -69 75 -125 35 -56 64 -111 64 -122 0 -28 -17 -35 -25 -10 -7
20 -8 20 -26 3 -20 -18 -20 -18 3 -27 22 -8 22 -9 4 -19 -24 -13 -90 -5 -121
16 -57 38 -104 150 -91 218 14 73 91 116 117 66z m329 -10 c0 -6 -16 -29 -37
-51 l-36 -41 6 40 c4 22 16 47 28 56 21 18 39 16 39 -4z m-665 -13 c92 -24
176 -65 173 -84 -2 -9 -12 -15 -23 -14 -17 1 -16 -1 5 -17 47 -36 13 -30 -46
8 -84 54 -84 54 -84 43 0 -5 33 -29 74 -52 41 -24 72 -47 69 -52 -3 -4 -11 -3
-19 4 -8 6 -14 7 -14 2 0 -5 11 -15 23 -20 13 -6 24 -18 24 -27 0 -12 -12 -9
-58 15 -89 48 -236 209 -191 209 4 0 35 -7 67 -15z m725 -67 c0 -5 5 -6 12 -2
7 4 8 3 4 -5 -4 -6 -11 -9 -16 -6 -12 7 -53 -58 -70 -110 -11 -35 -108 -160
-117 -151 -7 7 49 222 64 246 9 14 27 37 41 52 l25 27 28 -22 c16 -11 29 -25
29 -29z m-1199 -27 c35 -16 91 -36 124 -46 109 -31 149 -48 203 -83 53 -36 65
-49 35 -38 -10 3 -5 -5 11 -18 l30 -25 -40 9 c-21 5 -57 10 -79 10 -62 0 -138
23 -197 59 -51 31 -138 106 -167 144 -20 26 4 22 80 -12z m603 -149 c-3 -15
-20 -51 -36 -81 -16 -29 -27 -55 -24 -58 7 -7 64 97 72 129 3 16 9 28 13 28
16 0 51 -32 51 -47 0 -9 11 -35 24 -58 l25 -42 -27 -79 c-23 -68 -27 -96 -27
-197 0 -64 -1 -117 -2 -117 -1 0 -7 17 -14 37 -6 20 -39 92 -71 161 -47 97
-59 130 -54 153 4 20 2 28 -5 23 -8 -4 -8 -1 -2 12 6 11 18 56 29 101 17 72
21 80 36 72 14 -7 17 -17 12 -37z m856 16 c0 -37 -116 -195 -197 -268 -67 -59
-199 -128 -260 -135 -24 -3 -43 -3 -43 0 0 2 19 15 43 29 41 25 46 37 6 16
-31 -17 -22 3 21 45 22 21 40 44 40 49 0 14 -68 -53 -91 -91 -30 -48 -44 -40
-17 8 39 70 166 180 275 237 54 28 123 67 153 86 60 39 70 42 70 24z m-472
-83 c2 -30 1 -55 -4 -55 -5 0 -17 21 -26 47 -12 34 -14 52 -6 66 16 30 31 6
36 -58z m-52 3 c-2 -13 2 -29 8 -37 9 -12 8 -12 -11 -3 -30 17 -37 30 -23 47
18 22 30 18 26 -7z m7 -61 l27 -22 -23 -93 c-25 -95 -37 -101 -37 -19 0 23 -5
60 -10 82 -9 39 -5 75 8 75 4 0 19 -10 35 -23z m-814 -36 c43 -22 114 -49 158
-60 87 -22 173 -57 173 -70 0 -5 14 -14 30 -21 17 -7 29 -15 26 -17 -2 -3 -25
5 -50 16 -26 11 -54 18 -64 15 -14 -5 -15 -4 -2 5 8 6 11 11 5 11 -5 0 -45 11
-87 24 -43 14 -78 21 -78 16 0 -5 31 -16 69 -26 38 -10 67 -22 65 -26 -15 -23
-149 6 -213 46 -33 21 -121 109 -121 121 0 9 9 6 89 -34z m641 -15 c20 -33 20
-37 5 -72 -17 -42 -19 -58 -6 -49 5 3 12 19 16 35 9 40 21 45 40 16 18 -27 11
-76 -11 -76 -14 0 -18 -14 -28 -80 -2 -19 -8 -44 -12 -54 -5 -13 -4 -17 4 -12
8 5 11 -23 10 -96 -1 -57 2 -123 6 -148 7 -43 6 -42 -33 35 -23 44 -41 89 -41
100 0 12 11 36 25 55 25 34 33 56 16 46 -5 -4 -7 4 -5 16 2 13 -1 9 -8 -9 -28
-69 -36 -54 -13 23 8 27 14 58 14 69 -1 29 -27 -43 -29 -80 -2 -30 -2 -30 -10
-5 -7 18 -8 11 -5 -25 l5 -50 -16 35 c-13 28 -15 53 -10 120 7 90 45 240 61
240 2 0 13 -15 25 -34z m115 -166 c26 -51 31 -85 16 -108 -12 -20 -65 109 -56
137 3 11 8 21 11 21 2 0 15 -22 29 -50z m-474 19 c19 -6 43 -15 54 -19 11 -5
29 -11 40 -13 11 -3 3 -5 -17 -6 -36 -1 -112 22 -132 41 -14 11 14 10 55 -3z
m794 -165 c-26 -66 -67 -157 -92 -204 -55 -102 -142 -222 -156 -213 -6 3 -7 1
-4 -4 4 -6 1 -16 -7 -22 -24 -20 -12 20 32 106 23 46 42 88 42 95 -1 7 -13
-11 -28 -40 -15 -29 -32 -49 -36 -45 -5 4 -7 1 -4 -8 4 -9 1 -16 -8 -16 -8 0
-12 7 -9 16 2 9 6 33 9 53 2 21 7 42 10 47 3 5 1 11 -6 13 -21 7 45 111 119
185 39 40 96 101 125 134 71 82 74 59 13 -97z m-337 55 c52 -111 67 -205 56
-359 -7 -103 -8 -104 -20 -65 -11 38 -12 36 -7 -32 4 -51 3 -73 -6 -73 -8 0
-12 43 -13 143 l-2 142 -3 -120 c-3 -112 -5 -117 -18 -91 -31 58 -46 145 -52
287 -6 141 1 259 15 259 4 0 26 -41 50 -91z m-578 20 c14 -11 20 -18 13 -15
-7 4 -13 -3 -15 -16 -3 -22 -5 -21 -21 9 -27 50 -19 57 23 22z m208 -14 c29
-9 68 -30 87 -46 38 -34 47 -56 16 -39 -28 14 -31 13 -31 -15 0 -23 2 -24 21
-15 29 16 31 9 9 -27 -55 -91 -189 -104 -277 -28 -30 25 -37 39 -37 67 0 45
27 86 67 103 42 19 82 18 145 0z m237 -241 c63 -128 109 -244 96 -244 -4 0
-18 24 -32 52 -16 34 -57 87 -120 151 -71 72 -92 100 -83 108 6 5 17 23 24 39
22 52 48 28 115 -106z m774 104 c-2 -2 -29 -25 -58 -53 -30 -27 -50 -43 -45
-35 5 8 9 21 10 28 1 7 8 20 16 29 14 17 70 44 77 37 2 -2 2 -5 0 -6z m-848
-145 c94 -98 192 -235 116 -164 -38 36 -49 32 -21 -7 23 -33 6 -27 -87 28 -73
44 -209 162 -209 181 0 13 29 3 51 -17 l22 -19 -19 30 c-13 22 0 13 47 -30 71
-65 159 -131 158 -118 0 4 -43 42 -95 83 -51 41 -94 78 -94 82 0 15 17 8 40
-17 13 -14 28 -25 34 -25 5 0 -2 13 -17 28 -30 31 -33 42 -14 42 8 0 47 -35
88 -77z m716 -35 c-43 -100 -84 -163 -156 -241 -61 -65 -140 -115 -161 -102
-6 4 -17 1 -25 -5 -25 -21 -18 7 11 46 15 19 24 37 21 40 -3 4 -20 -15 -36
-42 -17 -26 -31 -43 -31 -37 0 6 -3 20 -6 30 -5 15 -4 15 5 3 6 -9 11 -10 11
-3 0 6 3 20 6 30 5 15 4 15 -5 3 -17 -24 -14 6 5 43 33 64 85 125 136 160 39
27 226 134 255 146 1 1 -12 -32 -30 -71z"/>
<path d="M1841 2893 c-38 -122 -72 -246 -68 -256 2 -7 10 8 17 33 14 50 45
153 65 218 7 23 10 42 6 42 -4 0 -13 -17 -20 -37z"/>
<path d="M1612 2660 c0 -69 3 -136 7 -150 4 -14 6 38 4 115 -6 178 -11 197
-11 35z"/>
<path d="M1990 2455 c-34 -64 -60 -119 -57 -121 3 -3 33 47 67 111 34 64 60
119 57 121 -3 3 -33 -47 -67 -111z"/>
<path d="M1856 2234 c-59 -77 -75 -88 -57 -40 7 17 7 26 1 26 -6 0 -11 -8 -11
-17 -6 -82 -9 -80 38 -27 53 60 97 123 92 129 -3 2 -31 -30 -63 -71z"/>
<path d="M1501 2369 c-4 -64 52 -359 66 -345 3 2 -2 28 -11 58 -8 29 -20 94
-26 143 -12 94 -27 171 -29 144z"/>
<path d="M2037 2070 c-67 -81 -85 -109 -46 -74 32 28 122 144 117 149 -3 3
-35 -31 -71 -75z"/>
<path d="M1401 1832 c-1 -44 92 -292 105 -279 3 3 -9 38 -27 78 -17 41 -42
108 -55 149 -13 41 -23 65 -23 52z"/>
<path d="M1860 1853 c-20 -7 -50 -34 -50 -44 0 -5 17 3 38 17 24 17 46 24 65
21 15 -2 27 0 27 5 0 9 -56 10 -80 1z"/>
<path d="M1850 1539 c-41 -22 -84 -50 -95 -61 l-20 -21 25 15 c14 8 60 34 103
57 42 24 77 45 77 47 0 9 -19 2 -90 -37z"/>
<path d="M1287 1623 c-13 -12 -7 -84 9 -114 8 -17 18 -29 20 -26 3 3 -2 20
-11 38 -12 22 -15 44 -11 71 6 38 5 44 -7 31z"/>
<path d="M570 1530 c36 -32 104 -64 185 -89 39 -12 78 -24 88 -27 9 -3 17 -1
17 5 0 6 -7 11 -15 11 -30 0 -171 52 -234 86 -44 23 -58 28 -41 14z"/>
<path d="M1962 1387 c-6 -6 -55 -36 -109 -65 -54 -29 -109 -62 -123 -73 -35
-29 -19 -22 101 44 106 59 174 106 153 107 -6 0 -16 -6 -22 -13z"/>
<path d="M1800 1169 c-19 -16 -63 -44 -97 -62 -35 -17 -63 -36 -63 -40 0 -4
30 8 68 28 69 37 141 90 132 98 -3 3 -21 -8 -40 -24z"/>
<path d="M675 1234 c26 -20 75 -46 75 -39 0 6 -77 55 -87 55 -5 0 1 -8 12 -16z"/>
<path d="M1753 978 c-11 -18 -50 -82 -87 -142 -37 -60 -65 -113 -63 -119 2 -6
43 56 92 136 48 81 86 150 83 153 -3 3 -14 -10 -25 -28z"/>
<path d="M1390 1007 c0 -17 32 -192 36 -196 12 -12 10 13 -5 97 -10 51 -21 95
-24 99 -4 3 -7 3 -7 0z"/>
<path d="M890 839 c18 -32 110 -65 110 -39 0 6 -14 10 -30 10 -20 0 -40 9 -56
25 -30 30 -38 32 -24 4z"/>
<path d="M1845 626 c-87 -70 -185 -169 -185 -186 0 -5 35 26 78 68 42 42 106
103 142 134 36 31 63 57 60 57 -3 0 -46 -33 -95 -73z"/>
<path d="M607 1893 c9 -23 59 -109 85 -146 24 -33 118 -110 126 -102 3 2 -8
15 -24 27 -57 44 -113 111 -146 174 -18 35 -36 64 -40 64 -4 0 -4 -8 -1 -17z"/>
</g>
</svg>
